<?xml version="1.0" encoding="UTF-8"?>
<svg width="4691.2" height="4692.5" version="1.1" viewBox="0 0 1241.2 1241.6" xmlns="http://www.w3.org/2000/svg" xmlns:osb="http://www.openswatchbook.org/uri/2009/osb">
 <g transform="translate(1023.4 1112.6)">
  <g>
   <path d="m217.79-491.64a620.61 620.61 0 0 1-620.61 620.61 620.61 620.61 0 0 1-620.61-620.61 620.61 620.61 0 0 1 620.61-620.61 620.61 620.61 0 0 1 620.61 620.61z" fill="#371d12" fill-rule="evenodd"/>
   <path d="m179.95-491.64a582.76 582.76 0 0 1-582.76 582.76 582.76 582.76 0 0 1-582.76-582.76 582.76 582.76 0 0 1 582.76-582.76 582.76 582.76 0 0 1 582.76 582.76z" fill="#e7bc96" fill-opacity=".99213" stroke-width="5.3858"/>
   <path d="m143.52-491.64a546.33 546.33 0 0 1-546.33 546.33 546.33 546.33 0 0 1-546.33-546.33 546.33 546.33 0 0 1 546.33-546.33 546.33 546.33 0 0 1 546.33 546.33z" fill="#dc9e77" fill-opacity=".70079" stroke-width="5.8836"/>
   <path d="m113.63-491.64a516.45 500.11 0 0 1-516.45 500.11 516.45 500.11 0 0 1-516.45-500.11 516.45 500.11 0 0 1 516.45-500.11 516.45 500.11 0 0 1 516.45 500.11z" fill="#e7bc96" stroke-width="5.3858"/>
   <path d="m65.955-491.64a468.77 447.79 0 0 1-468.77 447.79 468.77 447.79 0 0 1-468.77-447.79 468.77 447.79 0 0 1 468.77-447.79 468.77 447.79 0 0 1 468.77 447.79z" fill="#dc9e77" fill-opacity=".70196" stroke-width="4.9332"/>
   <path d="m13.237-491.64a416.05 416.05 0 0 1-416.05 416.05 416.05 416.05 0 0 1-416.05-416.05 416.05 416.05 0 0 1 416.05-416.05 416.05 416.05 0 0 1 416.05 416.05z" fill="#e7bc96" stroke-width="4.4806"/>
   <path d="m-24.586-491.64a378.23 378.23 0 0 1-378.23 378.23 378.23 378.23 0 0 1-378.23-378.23 378.23 378.23 0 0 1 378.23-378.23 378.23 378.23 0 0 1 378.23 378.23z" fill="#dc9e77" fill-opacity=".70196" stroke-width="4.0732"/>
   <g>
    <path d="m-66.612-491.64a336.21 336.21 0 0 1-336.21 336.21 336.21 336.21 0 0 1-336.21-336.21 336.21 336.21 0 0 1 336.21-336.21 336.21 336.21 0 0 1 336.21 336.21z" fill="#e7bc96" stroke-width="3.6207"/>
    <path d="m-150.66-491.64a252.15 252.15 0 0 1-252.15 252.15 252.15 252.15 0 0 1-252.15-252.15 252.15 252.15 0 0 1 252.15-252.15 252.15 252.15 0 0 1 252.15 252.15z" fill="#e7bc96" stroke-width="2.7155"/>
    <path d="m-184.28-491.64a218.53 218.53 0 0 1-218.53 218.53 218.53 218.53 0 0 1-218.53-218.53 218.53 218.53 0 0 1 218.53-218.53 218.53 218.53 0 0 1 218.53 218.53z" fill="#743b16" stroke-width="2.3534"/>
   </g>
   <path d="m-107.73-491.64a295.09 295.09 0 0 1-295.09 295.09 295.09 295.09 0 0 1-295.09-295.09 295.09 295.09 0 0 1 295.09-295.09 295.09 295.09 0 0 1 295.09 295.09z" fill="#dc9e77" fill-opacity=".70196" stroke-width="3.1779"/>
   <path d="m-146.19-491.64a256.63 256.63 0 0 1-256.63 256.63 256.63 256.63 0 0 1-256.63-256.63 256.63 256.63 0 0 1 256.63-256.63 256.63 256.63 0 0 1 256.63 256.63z" fill="#e7bc96" stroke-width="2.7637"/>
   <path d="m-184.28-491.64a218.53 218.53 0 0 1-218.53 218.53 218.53 218.53 0 0 1-218.53-218.53 218.53 218.53 0 0 1 218.53-218.53 218.53 218.53 0 0 1 218.53 218.53z" fill="#dc9e77" fill-opacity=".70196" stroke-width="2.3534"/>
   <path d="m-222.11-491.64a180.71 180.71 0 0 1-180.71 180.71 180.71 180.71 0 0 1-180.71-180.71 180.71 180.71 0 0 1 180.71-180.71 180.71 180.71 0 0 1 180.71 180.71z" fill="#e7bc96" stroke-width="1.9461"/>
   <path d="m-263.12-491.64a139.7 151.29 0 0 1-139.7 151.29 139.7 151.29 0 0 1-139.7-151.29 139.7 151.29 0 0 1 139.7-151.29 139.7 151.29 0 0 1 139.7 151.29z" fill="#dc9e77" fill-opacity=".70196" stroke-width="1.6293"/>
   <path d="m-285.15-491.64a117.67 117.67 0 0 1-117.67 117.67 117.67 117.67 0 0 1-117.67-117.67 117.67 117.67 0 0 1 117.67-117.67 117.67 117.67 0 0 1 117.67 117.67z" fill="#e7bc96" stroke-width="1.2672"/>
   <path d="m-318.77-491.64a84.051 84.051 0 0 1-84.051 84.051 84.051 84.051 0 0 1-84.051-84.051 84.051 84.051 0 0 1 84.051-84.051 84.051 84.051 0 0 1 84.051 84.051z" fill="#dc9e77" fill-opacity=".70196" stroke-width=".90516"/>
   <path d="m-342.54-491.64a60.278 60.278 0 0 1-60.278 60.278 60.278 60.278 0 0 1-60.278-60.278 60.278 60.278 0 0 1 60.278-60.278 60.278 60.278 0 0 1 60.278 60.278z" fill="#e7bc96" stroke-width=".64914"/>
   <path d="m-366.67-491.64a36.144 36.144 0 0 1-36.144 36.144 36.144 36.144 0 0 1-36.144-36.144 36.144 36.144 0 0 1 36.144-36.144 36.144 36.144 0 0 1 36.144 36.144z" fill="#dc9e77" fill-opacity=".70196" stroke-width=".38924"/>
  </g>
 </g>
 <g transform="translate(-65.864 -60.449)">
  <path transform="translate(1089.3 1173)" d="m-273.97-893.8c-17.288 1.1817-36.18 48.223-80.977 65.844-8.577 3.3741-16.666-24.52-23.995-15.86-24.245 28.652-17.685 92.605-45.63 96.612-22.046 3.1612-32.488-71.246-42.649-51.427-26.632 51.945-21.091 136.55-54.796 200.52-27.077 51.389-90.75-82.656-104.66-118.11-7.2325-18.431-37.793 15.224-56.419 10.789-56.221-13.386-106.88-88.15-137.34-105.81-33.041-19.157 17.81 98.676-5.4199 140.56-9.8041 17.679-69.191-9.9558-60.103 8.1017 25.74 51.147 135.37 138.68 79.665 158.59-40.113 14.333-135.02-7.9754-118.21 28.947 11.333 24.9 50.358 55.379 77.681 97.733 36.071 55.912 39.525 43.314 60.503 105.23 11.616 34.281-41.54 34.76-9.82 49.85 54.827 26.081 90.994 19.599 131.06 11.476 64.815-13.138 29.619 69.192 78.453 34.074 27.109-19.495 61.719-18.185 90.651-8.9692 4.75 1.5123 9.3595 3.2307 13.831 5.1213-3.2802 27.397-12.595 94.207-27.111 107.98-10.819 10.262-18.596 16.95-17.606 27.905 0.8494 9.4039 10.147 18.053 19.161 20.862 9.6513 3.008 26.218 2.8097 29.573-6.7268 15-42.646-9.8978-72.472 19.939-136.72 13.991 10.186 24.903 23.636 30.976 41.331 19.524 56.893 38.436-30.623 83.71 17.584 27.989 29.802 53.742 56.011 113.55 66.447 34.603 6.0379-8.486-25.105 20.818-46.351 52.923-38.371 48.46-26.089 110.22-50.836 46.787-18.746 96.25-21.044 119.9-34.801 35.065-20.4-55.255-57.093-79.687-91.986-33.93-48.458 106.13-56.452 156.71-83.287 17.858-9.4742-46.567-21.278-44.34-41.371 5.2781-47.605 114.91-114.32 76.876-117.8-35.065-3.2115-119.64 28.478-173.24 6.879-17.759-7.1556-25.497-75.565-39.782-41.432-12.444 29.737-161.33 93.392-153.7 35.81 9.504-71.677 62.967-137.49 71.287-195.27 3.1742-22.044-48.387 32.615-64.543 17.285-20.478-19.432 21.866-67.813 18.66-105.21-0.96918-11.304-23.699 6.7785-28.745-0.93497-28.108-42.971-17.131-97.964-31.015-102.22-1.1455-0.35089-2.2898-0.47994-3.4424-0.4007z" fill="#a62f00" stroke-opacity="0"/>
 </g>
 <g transform="translate(1023.4 1112.6)">
  <circle transform="rotate(90)" cx="164.42" cy="-75.217" r="0" fill="#743b16" stroke-width=".14247"/>
  <path d="m-379.62-1111.8s12.356 166.68 9.8881 273.46c-2.4681 106.78-1.8315 192.84-15.211 255.79-21.958 103.32-50.499 108.22-69.112 247.8-8.2276 61.702 31.312 124.94 91.288 124.94 59.976 0 95.386-64.895 89.572-126.67-12.786-135.86-51.499-154.24-68.986-245.71-9.5729-50.071-10.312-148.5-14.851-256.14-4.539-107.64 5.4089-271.79 5.4089-271.79-10.193-0.8876-19.067-1.3484-27.997-1.6866z" fill="#ff8420" opacity=".996" stroke-opacity="0"/>
 </g>
 <g transform="translate(1023.4 1112.6)" fill="#190d08">
  <g transform="matrix(21.863 0 0 21.863 -900.71 555.23)" style="font-variant-caps:normal;font-variant-east-asian:normal;font-variant-ligatures:normal;font-variant-numeric:normal;shape-inside:url(#rect1030);white-space:pre" aria-label="aS">
   <path d="m12.668-38.967v-0.80813h-0.02199q-0.32985 0.47279-0.6652 0.68719-0.33535 0.2089-0.83012 0.2089-0.83012 0-1.4129-0.71468-0.58274-0.71468-0.58274-1.7372 0-1.0115 0.62122-1.7317 0.62122-0.72567 1.4733-0.72567 0.40682 0 0.73117 0.18142t0.68719 0.57724v-0.6542h1.4074v4.7169zm-1.0335-3.414q-0.41781 0-0.69818 0.33535-0.28037 0.32985-0.28037 0.83562 0 0.47279 0.26388 0.76415 0.26938 0.28587 0.70368 0.28587 0.41781 0 0.71468-0.32985 0.29687-0.33535 0.29687-0.80813 0-0.4398-0.29687-0.75866-0.29686-0.32435-0.70368-0.32435z"/>
   <path d="m19.589-45.531-0.96756 1.061q-0.76415-0.4508-1.0995-0.4508-0.25838 0-0.4453 0.19791-0.18692 0.19241-0.18692 0.46179 0 0.53326 0.96756 0.92358 0.70918 0.30236 1.072 0.54975 0.36284 0.24189 0.60473 0.67619 0.24739 0.4343 0.24739 0.94007 0 0.92908-0.75316 1.6163-0.74766 0.68719-1.7702 0.68719-1.1215 0-2.2155-1.0555l1.0225-1.193q0.68719 0.70918 1.2864 0.70918 0.28037 0 0.53876-0.24739 0.25838-0.25289 0.25838-0.52776 0-0.56624-1.193-0.99505-0.68169-0.24739-0.96756-0.46179-0.28587-0.2199-0.48378-0.63221-0.19241-0.41781-0.19241-0.85211 0-0.96206 0.62672-1.5613 0.62672-0.59923 1.6383-0.59923 1.1985 0 2.0121 0.75316z"/>
  </g>
  <g style="font-variant-caps:normal;font-variant-east-asian:normal;font-variant-ligatures:normal;font-variant-numeric:normal" aria-label="P">
   <path d="m-255.71-452.35h53.966q21.755 0 35.096 12.74 13.341 12.62 13.341 33.293 0 13.582-6.6105 25.841-6.4903 12.139-19.711 18.149-13.221 6.0096-22.596 6.25l-19.711 0.48077v61.057h-33.774zm33.293 28.365v40.384h13.221q8.5336 0 14.543-6.1298 6.1298-6.1298 6.1298-14.543 0-9.6153-6.8509-14.904-6.8509-5.2884-19.471-5.2884z" fill="#190d08" stroke-width="5.7846" style="font-variant-caps:normal;font-variant-east-asian:normal;font-variant-ligatures:normal;font-variant-numeric:normal"/>
  </g>
  <g stroke-width="3.0495" style="font-variant-caps:normal;font-variant-east-asian:normal;font-variant-ligatures:normal;font-variant-numeric:normal" aria-label="2021">
   <path d="m-305.82-186.79h21.68v14.175h-53.068l25.909-32.937q5.6582-7.2663 8.0406-11.912 2.442-4.6457 2.442-8.6958 0-4.4074-2.9184-7.2663-2.8589-2.8589-7.2068-2.8589-5.003 0-7.2663 3.6332-2.2633 3.5736-2.7398 11.257h-16.856q-0.0596-13.818 8.1002-21.382 8.1597-7.5641 20.191-7.5641 11.197 0 18.285 6.5516 7.0876 6.492 7.0876 16.677 0 9.9465-8.2788 22.037l-4.5266 6.6112q-2.6802 3.9905-6.7898 9.1127z"/>
   <path d="m-246.03-249.69q13.52 0 21.561 10.363 8.0406 10.363 8.0406 27.695 0 20.25-8.934 30.078-8.934 9.7678-20.667 9.7678-13.401 0-21.739-10.423-8.2788-10.483-8.2788-27.517 0-18.106 8.1002-29.006 8.1597-10.959 21.442-10.959zm13.639 39.488q0-11.555-3.6927-18.166-3.6927-6.6112-9.9465-6.6112-6.5516 0-10.304 6.6112-3.7523 6.6112-3.7523 18.404 0 10.721 3.8118 17.153 3.8118 6.4325 10.006 6.4325 6.3134 0 10.066-6.4325 3.8118-6.4325 3.8118-17.392z"/>
   <path d="m-176.34-186.79h21.68v14.175h-53.068l25.909-32.937q5.6582-7.2663 8.0406-11.912 2.442-4.6457 2.442-8.6958 0-4.4074-2.9184-7.2663-2.8589-2.8589-7.2068-2.8589-5.003 0-7.2663 3.6332-2.2633 3.5736-2.7398 11.257h-16.856q-0.0596-13.818 8.1002-21.382 8.1597-7.5641 20.191-7.5641 11.197 0 18.285 6.5516 7.0876 6.492 7.0876 16.677 0 9.9465-8.2788 22.037l-4.5266 6.6112q-2.6802 3.9905-6.7898 9.1127z"/>
   <path d="m-133.16-248.5h24.658v75.88h-16.617v-62.062h-10.959z"/>
  </g>
 </g>
 <g transform="translate(1023.4 1112.6)">
  <g transform="matrix(18.231 0 0 30.305 -2087.2 43.118)" fill="#190d08" style="font-variant-caps:normal;font-variant-east-asian:normal;font-variant-ligatures:normal;font-variant-numeric:normal" aria-label="A">
   <path d="m93.086-19.975c0.89547 0.07489 1.9322-0.1296 2.6957-0.55339 0.13614 0.36084 0.59789 1.4733 0.81298 1.7547 0.10846 0.18826 0.26862 0.38487 0.41228 0.5826 0.35999 0.48044 0.7924 1.0541 1.2052 1.7769 0.4509 0.78952 0.80462 1.5501 1.0683 2.2558 0.03144 0.10475 0.06149 0.2109 0.08973 0.31825 0.07975 0.29255 0.14393 0.59635 0.18373 0.90878 0.0781 0.60849 0.06011 1.2467-0.10431 1.8732-0.05772 0.21022-0.1065 0.2874-0.1065 0.2874l-0.03906 0.05169s-0.07682 0.10546-0.18039 0.23848c-0.04817 0.06188-0.09298 0.09985-0.14115 0.16173-0.04675 0.06005-0.05769 0.13136-0.20398 0.09337-0.14628-0.03799-0.25469-0.11784-0.37287-0.20342-0.07442-0.05389-0.19831-0.16181-0.19831-0.16181s-0.1583-0.08075-0.32542-0.24157c-0.19564-0.18827-0.31883-0.31458-0.49061-0.49733-0.26619-0.28319-0.62215-0.44478-0.75164-0.53419-0.27331-0.18872-0.12035-0.74619-0.23016-1.1535-0.01681-0.06339-0.03519-0.12777-0.05497-0.19307-1.208-0.11911-2.6689 0.0016-4.0691 0.27005l-0.0019 0.0079c-0.01103 0.04987-0.02128 0.09898-0.0307 0.14735-0.09755 0.45333 0.07353 0.8161-6e-3 1.1345-0.04502 0.18035-0.44625 0.24409-0.66868 0.36591-0.27234 0.14713-0.42259 0.28076-0.60065 0.42346-0.02304 0.02242-0.04688 0.04588-0.07057 0.07014-0.08527 0.08398-0.23787 0.1768-0.23787 0.1768l-0.18229 0.1861c-0.12158 0.17155-0.07295 0.18265-0.25122 0.2689-0.11325 0.05479-0.29048-0.16021-0.43463-0.32029l-0.18074-0.29276c-0.04667-0.09035-0.02321-0.0039-0.09174-0.22395l-0.07232-0.23223c-0.06938-0.22279-0.04077-0.24197-0.08605-0.44544-0.05305-0.59387 0.06804-0.90174 0.18656-1.4827 0.03546-0.17338 0.08408-0.37128 0.12758-0.5423 0.0265-0.10307 0.07009-0.21589 0.09904-0.31827 0.61813-1.3702 0.62905-1.5618 1.0203-2.1723 0.32062-0.50715 0.37282-0.64172 0.64649-1.0379 0.07385-0.14237 0.27732-0.46828 0.41356-0.64128 0.20211-0.28671 0.26463-0.42339 0.44554-0.69482 0.23234-0.36815 0.56968-1.1247 0.77689-1.4116zm2.781 5.4741c0.28883 0.39204 0.40108 0.93633 0.54859 1.4834-0.41126-1.4196-1.2664-2.9853-1.9359-4.5521-0.07518-0.18838-0.14959-0.3745-0.2241-0.56229l-1e-6 -1e-6c-0.19306-0.38534 0.51041-0.58463-0.01575-0.03806 8.45e-4 0.01388-0.01065 0.04121-0.01064 0.04116v1e-6c-0.06223 0.20149-0.12842 0.40403-0.19821 0.60671-0.39071 1.1742-1.2582 2.157-1.2666 3.2378-0.0022 0.27412 0.87871 0.04259 1.8527-0.0052l1.0546-0.05169 0.16406-0.02819c0.01577-0.0027 0.06206-0.02164 0.03125-0.13157z" fill="#190d08" stroke-width=".38029" style="font-variant-caps:normal;font-variant-east-asian:normal;font-variant-ligatures:normal;font-variant-numeric:normal"/>
  </g>
 </g>
</svg>
